<svg xmlns="http://www.w3.org/2000/svg" viewBox="0 0 310.98 290.17"><defs><style>.cls-1{fill:#1b181b;}.cls-2{fill:#fff;}.cls-3{fill:#0e0c0e;}.cls-4{fill:#e7e8ea;}.cls-5{fill:#a09fa4;}.cls-6{fill:#b6b6bb;}</style></defs><title>Recurso 1</title><g id="Capa_2" data-name="Capa 2"><g id="Capa_1-2" data-name="Capa 1"><polyline points="310.98 290.17 4.46 290.17 4.46 107.57 310.98 107.57 310.98 290.17"/><polyline points="310.98 290.17 4.46 290.17 4.46 212.11 310.98 212.11 310.98 290.17"/><polygon class="cls-1" points="295.3 0 0 74.95 9.82 108.59 305.13 33.65 295.3 0 295.3 0"/><polygon class="cls-2" points="51.4 61.9 19.68 69.95 9.82 108.59 41.54 100.54 51.4 61.9 51.4 61.9"/><polygon class="cls-2" points="122.5 43.86 90.78 51.91 80.92 90.55 112.63 82.5 122.5 43.86 122.5 43.86"/><polygon class="cls-2" points="193.59 25.81 161.87 33.87 152.01 72.51 183.73 64.46 193.59 25.81 193.59 25.81"/><polygon class="cls-2" points="264.68 7.77 232.97 15.82 223.1 54.47 254.82 46.42 264.68 7.77 264.68 7.77"/><polygon class="cls-2" points="298.75 11.82 294.2 36.42 305.13 33.65 298.75 11.82 298.75 11.82"/><polygon class="cls-3" points="310.98 142.42 4.46 142.42 4.46 107.57 310.98 107.57 310.98 142.42 310.98 142.42"/><polygon class="cls-4" points="57.58 142.42 24.72 142.42 4.33 107.57 37.18 107.57 57.58 142.42 57.58 142.42"/><polygon class="cls-4" points="131.25 142.42 98.41 142.42 78.02 107.57 110.86 107.57 131.25 142.42 131.25 142.42"/><polygon class="cls-4" points="204.94 142.42 172.08 142.42 151.69 107.57 184.54 107.57 204.94 142.42 204.94 142.42"/><polygon class="cls-4" points="278.62 142.42 245.77 142.42 225.37 107.57 258.23 107.57 278.62 142.42 278.62 142.42"/><polygon class="cls-4" points="310.98 130.2 299.66 107.57 310.98 107.57 310.98 130.2 310.98 130.2"/><path class="cls-5" d="M38.85,135.26c0,7.69-1.47,8.55-8.9,8.55H11.52c-7.44,0-10-.86-10-8.55V81.91c0-7.67,2.61-9.19,10-9.19H30c7.43,0,8.9,1.52,8.9,9.19v53.35Z"/><path class="cls-6" d="M37.35,134.37c0,7.24-1.41,8-8.55,8H11.11c-7.13,0-9.64-.81-9.64-8V84.16c0-7.23,2.51-8.65,9.64-8.65H28.8c7.14,0,8.55,1.42,8.55,8.65v50.21Z"/><path class="cls-5" d="M27.55,90.71a7.71,7.71,0,0,1-8,7.43,7.45,7.45,0,1,1,0-14.86,7.71,7.71,0,0,1,8,7.43Z"/><path class="cls-5" d="M27.55,125.28a7.72,7.72,0,0,1-8,7.44,7.45,7.45,0,1,1,0-14.86,7.71,7.71,0,0,1,8,7.42Z"/><polygon class="cls-6" points="29.88 93.63 10.44 93.63 10.44 89.45 29.88 89.45 29.88 93.63 29.88 93.63"/><polygon class="cls-6" points="28.5 120.62 14.02 132.88 11.17 129.95 25.64 117.69 28.5 120.62 28.5 120.62"/><polyline class="cls-2" points="41.84 187.02 267.62 187.02 267.62 182.84 41.84 182.84"/><polyline class="cls-2" points="41.84 213.51 267.62 213.51 267.62 209.33 41.84 209.33"/><polyline class="cls-2" points="41.84 241.39 267.62 241.39 267.62 237.2 41.84 237.2"/></g></g></svg>