<svg id="Capa_1" data-name="Capa 1" xmlns="http://www.w3.org/2000/svg" viewBox="0 0 334.86 512"><defs><style>.cls-1{fill:#fc3;}.cls-2{fill:#ffab33;}.cls-3{fill:#bcbec0;}</style></defs><title>sangre-2</title><g id="surface1"><path class="cls-1" d="M215.71,512a126.71,126.71,0,0,0,126.7-126.71c0-70-126.7-199.11-126.7-199.11Z" transform="translate(-89)"/><path class="cls-2" d="M89,385.29A126.71,126.71,0,0,0,215.71,512V186.18S89,315.32,89,385.29Zm45.25,0a72.5,72.5,0,0,0,72.41,72.41A72.5,72.5,0,0,1,134.25,385.29Z" transform="translate(-89)"/><path class="cls-2" d="M279.06,140.93a72.49,72.49,0,0,0,72.4,72.41V22.85C312.54,69.51,279.06,120.28,279.06,140.93Z" transform="translate(-89)"/><path class="cls-1" d="M351.46,22.82V213.34a72.49,72.49,0,0,0,72.4-72.41C423.86,121.77,392.47,71.87,351.46,22.82Z" transform="translate(-89)"/><path class="cls-1" d="M221.31,52.24A347.26,347.26,0,0,0,188.55,0V95.68a36.25,36.25,0,0,0,33.93-23.53A25.66,25.66,0,0,0,221.31,52.24Z" transform="translate(-89)"/><path class="cls-2" d="M188.55,95.68V0a356.57,356.57,0,0,0-32.78,51.81,26,26,0,0,0-1.27,19.91A36.25,36.25,0,0,0,188.55,95.68Z" transform="translate(-89)"/><path class="cls-3" d="M206.66,466.75a81.55,81.55,0,0,1-81.46-81.46h18.1a63.44,63.44,0,0,0,63.36,63.36Z" transform="translate(-89)"/></g></svg>